<?xml version="1.0" encoding="UTF-8" standalone="no"?>
<svg
   xmlns:dc="http://purl.org/dc/elements/1.1/"
   xmlns:cc="http://creativecommons.org/ns#"
   xmlns:rdf="http://www.w3.org/1999/02/22-rdf-syntax-ns#"
   xmlns:svg="http://www.w3.org/2000/svg"
   xmlns="http://www.w3.org/2000/svg"
   xmlns:sodipodi="http://sodipodi.sourceforge.net/DTD/sodipodi-0.dtd"
   xmlns:inkscape="http://www.inkscape.org/namespaces/inkscape"
   width="287.24"
   height="143.62"
   version="1.1"
   id="svg10"
   sodipodi:docname="logo.svg"
   inkscape:version="0.92.0 r15299">
  <metadata
     id="metadata16">
    <rdf:RDF>
      <cc:Work
         rdf:about="">
        <dc:format>image/svg+xml</dc:format>
        <dc:type
           rdf:resource="http://purl.org/dc/dcmitype/StillImage" />
      </cc:Work>
    </rdf:RDF>
  </metadata>
  <defs
     id="defs14" />
  <sodipodi:namedview
     pagecolor="#ffffff"
     bordercolor="#666666"
     borderopacity="1"
     objecttolerance="10"
     gridtolerance="10"
     guidetolerance="10"
     inkscape:pageopacity="0"
     inkscape:pageshadow="2"
     inkscape:window-width="1920"
     inkscape:window-height="1027"
     id="namedview12"
     showgrid="false"
     inkscape:zoom="3.9548811"
     inkscape:cx="149.05449"
     inkscape:cy="64.97267"
     inkscape:window-x="-8"
     inkscape:window-y="-8"
     inkscape:window-maximized="1"
     inkscape:current-layer="g8" />
  <g
     id="g8">
    <path
       d="M 35.90625 1.890625 A 34.015751 34.015751 0 0 0 1.890625 35.90625 A 34.015751 34.015751 0 0 0 35.90625 69.921875 A 34.015751 34.015751 0 0 0 69.921875 35.90625 A 34.015751 34.015751 0 0 0 35.90625 1.890625 z M 39.154297 18.470703 C 43.036963 18.470703 46.546339 20.63536 48.263672 24.443359 C 49.458339 27.206026 49.457031 30.04487 49.457031 32.658203 L 49.457031 53.339844 L 44.15625 53.339844 L 44.15625 32.806641 C 44.15625 30.417307 44.155729 27.505625 42.289062 25.265625 C 41.094396 23.846958 39.37749 23.099609 37.660156 23.099609 C 34.076156 23.099609 30.790818 26.161573 29.521484 27.878906 C 28.102818 29.745573 27.804688 31.463125 27.804688 33.703125 L 27.804688 53.339844 L 22.353516 53.339844 L 22.353516 19.292969 L 27.804688 19.292969 L 27.804688 25.265625 C 30.343354 21.457625 34.524964 18.470703 39.154297 18.470703 z "
       id="svg_7" />
    <path
       d="M 107.7168 1.890625 A 34.015751 34.015751 0 0 0 73.701172 35.90625 A 34.015751 34.015751 0 0 0 107.7168 69.921875 A 34.015751 34.015751 0 0 0 141.73242 35.90625 A 34.015751 34.015751 0 0 0 107.7168 1.890625 z M 108.57617 18.060547 C 113.87751 18.060547 118.20727 20.00149 120.44727 23.660156 C 122.01527 26.348156 122.08984 28.961943 122.08984 31.724609 L 122.08984 52.855469 L 117.01172 52.855469 L 117.01172 49.121094 C 113.27839 52.182427 108.94891 53.75 104.76758 53.75 C 97.674245 53.75 93.34375 49.047588 93.34375 44.044922 C 93.34375 40.311589 95.733375 36.279224 101.10938 34.337891 C 105.44004 32.769891 110.81524 32.769531 115.89258 32.769531 L 116.9375 32.769531 L 116.9375 31.574219 C 116.9375 29.782219 117.01258 27.542448 115.89258 25.675781 C 114.92191 24.107781 112.90505 22.390625 108.87305 22.390625 C 105.66238 22.390625 101.85491 23.287219 99.017578 26.199219 L 96.404297 22.763672 C 99.614963 19.478339 104.02151 18.060547 108.57617 18.060547 z M 113.13477 36.853516 C 110.19477 36.825516 107.04536 36.838438 104.69336 37.398438 C 100.43736 38.443771 98.71875 41.207427 98.71875 43.746094 C 98.71875 46.73276 101.33205 49.644531 105.88672 49.644531 C 110.36672 49.644531 113.57832 46.880661 114.84766 45.611328 C 117.16232 43.147328 117.16211 40.90874 117.16211 39.191406 L 117.16211 36.876953 L 115.9668 36.876953 C 115.0708 36.876953 114.11477 36.862849 113.13477 36.853516 z "
       id="svg_8" />
    <path
       d="M 179.52734 1.890625 A 34.015751 34.015751 0 0 0 145.51172 35.90625 A 34.015751 34.015751 0 0 0 179.52734 69.921875 A 34.015751 34.015751 0 0 0 213.54297 35.90625 A 34.015751 34.015751 0 0 0 179.52734 1.890625 z M 182.77539 18.470703 C 186.65806 18.470703 190.16743 20.63536 191.88477 24.443359 C 193.07943 27.206026 193.08008 30.04487 193.08008 32.658203 L 193.08008 53.339844 L 187.77734 53.339844 L 187.77734 32.806641 C 187.77734 30.417307 187.77878 27.505625 185.91211 25.265625 C 184.71744 23.846958 183.00054 23.099609 181.2832 23.099609 C 177.6992 23.099609 174.41386 26.161573 173.14453 27.878906 C 171.72586 29.745573 171.42578 31.463125 171.42578 33.703125 L 171.42578 53.339844 L 165.97461 53.339844 L 165.97461 19.292969 L 171.42578 19.292969 L 171.42578 25.265625 C 173.96445 21.457625 178.14606 18.470703 182.77539 18.470703 z "
       id="svg_9" />
    <path
       d="M 251.33789 1.890625 A 34.015747 34.015747 0 0 0 217.32227 35.90625 A 34.015747 34.015747 0 0 0 251.33789 69.921875 A 34.015747 34.015747 0 0 0 285.35352 35.90625 A 34.015747 34.015747 0 0 0 251.33789 1.890625 z M 251.78711 18.023438 C 259.55244 18.023438 267.01953 24.146026 267.01953 35.943359 C 267.01953 47.292692 259.70072 53.789062 251.63672 53.789062 C 243.05005 53.789062 235.6582 46.470463 235.6582 36.091797 C 235.6582 25.489131 243.12578 18.023438 251.78711 18.023438 z M 251.41406 22.578125 C 246.1874 22.578125 241.33398 27.207646 241.33398 35.570312 C 241.33398 44.007646 246.26222 49.083984 251.71289 49.083984 C 256.64089 49.083984 261.56836 44.752682 261.56836 36.166016 C 261.56836 26.832683 256.34206 22.578125 251.41406 22.578125 z "
       id="svg_10" />
    <circle
       id="svg_11"
       r="34.015755"
       cy="107.716544"
       cx="179.527573"
       stroke-linecap="null"
       stroke-linejoin="null"
       stroke-dasharray="null"
       stroke-width="0"
       stroke="#000000"
       fill="#000000" />
    <circle
       id="svg_12"
       r="34.015755"
       cy="107.716544"
       cx="251.338603"
       stroke-linecap="null"
       stroke-linejoin="null"
       stroke-dasharray="null"
       stroke-width="0"
       stroke="#000000"
       fill="#000000" />
  </g>
  <text
     xml:space="preserve"
     style="font-style:normal;font-weight:normal;font-size:40px;line-height:25px;font-family:sans-serif;letter-spacing:0px;word-spacing:0px;fill:#000000;fill-opacity:1;stroke:none"
     x="29.583696"
     y="41.97345"
     id="text4495"><tspan
       sodipodi:role="line"
       id="tspan4493"
       x="29.583696"
       y="65.96666"></tspan></text>
  <text
     xml:space="preserve"
     style="font-style:normal;font-weight:normal;font-size:40px;line-height:25px;font-family:sans-serif;letter-spacing:0px;word-spacing:0px;fill:#000000;fill-opacity:1;stroke:none"
     x="12.136901"
     y="47.030491"
     id="text4499"><tspan
       sodipodi:role="line"
       id="tspan4497"
       x="12.136901"
       y="71.023705" /></text>
</svg>
